<?xml version="1.0" ?><svg data-name="Layer 1" id="Layer_1" viewBox="82 82 453 453" xmlns="http://www.w3.org/2000/svg"><title/><line fill="none" stroke="#ffffff" stroke-linecap="round" stroke-linejoin="round" stroke-width="19.15" x1="113.5" x2="156.83" y1="243.5" y2="308.5"/><line fill="none" stroke="#ffffff" stroke-linecap="round" stroke-linejoin="round" stroke-width="19.15" x1="113.5" x2="156.83" y1="373.5" y2="308.5"/><line fill="none" stroke="#ffffff" stroke-linecap="round" stroke-linejoin="round" stroke-width="19.15" x1="178.5" x2="200.17" y1="276" y2="308.5"/><line fill="none" stroke="#ffffff" stroke-linecap="round" stroke-linejoin="round" stroke-width="19.15" x1="178.5" x2="200.17" y1="341" y2="308.5"/><line fill="none" stroke="#ffffff" stroke-linecap="round" stroke-linejoin="round" stroke-width="19.15" x1="92.42" x2="524.58" y1="308.5" y2="308.5"/><line fill="none" stroke="#ffffff" stroke-linecap="round" stroke-linejoin="round" stroke-width="19.15" x1="503.5" x2="460.17" y1="373.5" y2="308.5"/><line fill="none" stroke="#ffffff" stroke-linecap="round" stroke-linejoin="round" stroke-width="19.15" x1="503.5" x2="460.17" y1="243.5" y2="308.5"/><line fill="none" stroke="#ffffff" stroke-linecap="round" stroke-linejoin="round" stroke-width="19.15" x1="438.5" x2="416.83" y1="341" y2="308.5"/><line fill="none" stroke="#ffffff" stroke-linecap="round" stroke-linejoin="round" stroke-width="19.15" x1="438.5" x2="416.83" y1="276" y2="308.5"/><line fill="none" stroke="#ffffff" stroke-linecap="round" stroke-linejoin="round" stroke-width="19.15" x1="124.65" x2="201.26" y1="400.42" y2="415.74"/><line fill="none" stroke="#ffffff" stroke-linecap="round" stroke-linejoin="round" stroke-width="19.15" x1="216.58" x2="201.26" y1="492.35" y2="415.74"/><line fill="none" stroke="#ffffff" stroke-linecap="round" stroke-linejoin="round" stroke-width="19.15" x1="193.6" x2="231.9" y1="377.44" y2="385.1"/><line fill="none" stroke="#ffffff" stroke-linecap="round" stroke-linejoin="round" stroke-width="19.15" x1="239.56" x2="231.9" y1="423.4" y2="385.1"/><line fill="none" stroke="#ffffff" stroke-linecap="round" stroke-linejoin="round" stroke-width="19.15" x1="155.71" x2="461.29" y1="461.29" y2="155.71"/><line fill="none" stroke="#ffffff" stroke-linecap="round" stroke-linejoin="round" stroke-width="19.15" x1="492.35" x2="415.74" y1="216.58" y2="201.26"/><line fill="none" stroke="#ffffff" stroke-linecap="round" stroke-linejoin="round" stroke-width="19.15" x1="400.42" x2="415.74" y1="124.65" y2="201.26"/><line fill="none" stroke="#ffffff" stroke-linecap="round" stroke-linejoin="round" stroke-width="19.15" x1="423.4" x2="385.1" y1="239.56" y2="231.9"/><line fill="none" stroke="#ffffff" stroke-linecap="round" stroke-linejoin="round" stroke-width="19.15" x1="377.44" x2="385.1" y1="193.6" y2="231.9"/><line fill="none" stroke="#ffffff" stroke-linecap="round" stroke-linejoin="round" stroke-width="19.15" x1="308.5" x2="308.5" y1="524.58" y2="92.42"/><line fill="none" stroke="#ffffff" stroke-linecap="round" stroke-linejoin="round" stroke-width="19.15" x1="351.83" x2="308.5" y1="113.5" y2="156.83"/><line fill="none" stroke="#ffffff" stroke-linecap="round" stroke-linejoin="round" stroke-width="19.15" x1="265.17" x2="308.5" y1="113.5" y2="156.83"/><line fill="none" stroke="#ffffff" stroke-linecap="round" stroke-linejoin="round" stroke-width="19.15" x1="341" x2="308.5" y1="178.5" y2="200.17"/><line fill="none" stroke="#ffffff" stroke-linecap="round" stroke-linejoin="round" stroke-width="19.15" x1="276" x2="308.5" y1="178.5" y2="200.17"/><line fill="none" stroke="#ffffff" stroke-linecap="round" stroke-linejoin="round" stroke-width="19.15" x1="400.42" x2="415.74" y1="492.35" y2="415.74"/><line fill="none" stroke="#ffffff" stroke-linecap="round" stroke-linejoin="round" stroke-width="19.15" x1="492.35" x2="415.74" y1="400.42" y2="415.74"/><line fill="none" stroke="#ffffff" stroke-linecap="round" stroke-linejoin="round" stroke-width="19.15" x1="377.44" x2="385.1" y1="423.4" y2="385.1"/><line fill="none" stroke="#ffffff" stroke-linecap="round" stroke-linejoin="round" stroke-width="19.15" x1="423.4" x2="385.1" y1="377.44" y2="385.1"/><line fill="none" stroke="#ffffff" stroke-linecap="round" stroke-linejoin="round" stroke-width="19.15" x1="461.29" x2="155.71" y1="461.29" y2="155.71"/><line fill="none" stroke="#ffffff" stroke-linecap="round" stroke-linejoin="round" stroke-width="19.15" x1="216.58" x2="201.26" y1="124.65" y2="201.26"/><line fill="none" stroke="#ffffff" stroke-linecap="round" stroke-linejoin="round" stroke-width="19.15" x1="124.65" x2="201.26" y1="216.58" y2="201.26"/><line fill="none" stroke="#ffffff" stroke-linecap="round" stroke-linejoin="round" stroke-width="19.15" x1="239.56" x2="231.9" y1="193.6" y2="231.9"/><line fill="none" stroke="#ffffff" stroke-linecap="round" stroke-linejoin="round" stroke-width="19.15" x1="193.6" x2="231.9" y1="239.56" y2="231.9"/><line fill="none" stroke="#ffffff" stroke-linecap="round" stroke-linejoin="round" stroke-width="19.15" x1="265.17" x2="308.5" y1="503.5" y2="460.17"/><line fill="none" stroke="#ffffff" stroke-linecap="round" stroke-linejoin="round" stroke-width="19.15" x1="351.83" x2="308.5" y1="503.5" y2="460.17"/><line fill="none" stroke="#ffffff" stroke-linecap="round" stroke-linejoin="round" stroke-width="19.15" x1="276" x2="308.5" y1="438.5" y2="416.83"/><line fill="none" stroke="#ffffff" stroke-linecap="round" stroke-linejoin="round" stroke-width="19.15" x1="341" x2="308.5" y1="438.5" y2="416.83"/><rect fill="none" height="520" width="520" x="48.5" y="48.5"/></svg>